<svg xmlns="http://www.w3.org/2000/svg" version="1.1" xmlns:xlink="http://www.w3.org/1999/xlink" xmlns:svgjs="http://svgjs.dev/svgjs" width="1500" height="1500" viewBox="0 0 1500 1500"><rect width="1500" height="1500" fill="#5dc513"></rect><g transform="matrix(0.6666666666666666,0,0,0.6666666666666666,249.39393939393938,609.1822453295619)"><svg viewBox="0 0 396 111" data-background-color="#5dc513" preserveAspectRatio="xMidYMid meet" height="420" width="1500" xmlns="http://www.w3.org/2000/svg" xmlns:xlink="http://www.w3.org/1999/xlink"><g id="tight-bounds" transform="matrix(1,0,0,1,0.2400000000000091,0.32418131578083376)"><svg viewBox="0 0 395.52 110.3516373684383" height="110.3516373684383" width="395.52"><g><svg viewBox="0 0 615.4634026581227 171.71671274189495" height="110.3516373684383" width="395.52"><g transform="matrix(1,0,0,1,0,23.73219401859764)"><svg viewBox="0 0 395.52 124.25232470469967" height="124.25232470469967" width="395.52"><g id="textblocktransform"><svg viewBox="0 0 395.52 124.25232470469967" height="124.25232470469967" width="395.52" id="textblock"><g><svg viewBox="0 0 395.52 124.25232470469967" height="124.25232470469967" width="395.52"><g transform="matrix(1,0,0,1,0,0)"><svg width="395.52" viewBox="2.4 -46.2 198.93 62.5" height="124.25232470469967" data-palette-color="#dfeef4"><path d="M23.8-46.2L23.8-4.45Q23.8-3.75 24.13-3.18 24.45-2.6 25.15-2.6L25.15-2.6Q25.85-2.6 26.55-3.23 27.25-3.85 27.6-4.6L27.6-4.6 28.55-3.8Q27.75-2.1 26.28-0.93 24.8 0.25 23.4 0.25L23.4 0.25Q21.1 0.25 20.05-1.05 19-2.35 19.05-5.55L19.05-5.55 18.85-5.55Q15.8 0.6 11.4 0.6L11.4 0.6Q7.05 0.6 4.73-2.43 2.4-5.45 2.4-10L2.4-10Q2.4-13.6 3.95-17.15 5.5-20.7 8.38-23 11.25-25.3 15-25.3L15-25.3Q17.35-25.3 19.1-24.1L19.1-24.1 19.1-44.3 23.8-46.2ZM14.7-22.35Q11.9-22.35 10.08-20.6 8.25-18.85 7.4-16.38 6.55-13.9 6.55-11.75L6.55-11.75Q6.55-10.05 7.15-8 7.75-5.95 9.1-4.48 10.45-3 12.55-3L12.55-3Q16.35-3 17.73-6.28 19.1-9.55 19.1-13.5L19.1-13.5 19.1-20.35Q18.25-21.25 17.13-21.8 16-22.35 14.7-22.35L14.7-22.35ZM53.45-25.7L53.45-4.35Q53.45-3.6 53.82-3.13 54.2-2.65 54.9-2.65L54.9-2.65Q55.95-2.65 57.45-4.6L57.45-4.6 58.2-3.85Q57.15-1.6 55.67-0.68 54.2 0.25 54.2 0.25 54.2 0.25 52.9 0.25L52.9 0.25Q51.3 0.25 50.47-0.65 49.65-1.55 49.3-3.88 48.95-6.2 48.95-10.8L48.95-10.8Q48.95-13.55 49-15.2L49-15.2 48.6-16.2 48.45-16.2Q47.15-10.05 44.82-4.73 42.5 0.6 38.2 0.6L38.2 0.6Q36.6 0.6 35.87-0.2 35.15-1 35-2.38 34.85-3.75 34.85-6.6L34.85-6.6 34.85-20.7Q34.85-21.55 34.47-22.05 34.1-22.55 33.45-22.55L33.45-22.55Q32.25-22.55 30.75-20.55L30.75-20.55 30.15-21.35Q30.95-23.25 32.17-24.18 33.4-25.1 34.47-25.33 35.55-25.55 35.55-25.4L35.55-25.4Q35.5-25.4 35.4-25.38 35.3-25.35 35.1-25.35L35.1-25.35Q39.4-25.35 39.4-20.4L39.4-20.4 39.4-6Q39.4-4.9 39.65-4.42 39.9-3.95 40.25-3.95L40.25-3.95Q42.4-3.95 44.25-8.15 46.1-12.35 47.27-17.4 48.45-22.45 48.45-23.45L48.45-23.45 53.45-25.7ZM75.4-25.45Q78.09-25.45 79.9-24 81.7-22.55 81.7-19.7L81.7-19.7Q81.7-17.4 79.22-14.58 76.75-11.75 73.42-9.4 70.09-7.05 67.75-6.1L67.75-6.1Q69-4.1 70.59-3.33 72.2-2.55 74.34-2.55L74.34-2.55Q76.75-2.55 79.12-3.78 81.5-5 83.05-6.95L83.05-6.95 83.65-5.9Q81.2-2.75 78.45-1.07 75.7 0.6 71.7 0.6L71.7 0.6Q68.65 0.6 66.25-0.9 63.85-2.4 62.5-4.93 61.15-7.45 61.15-10.4L61.15-10.4Q61.15-14.1 63.15-17.6 65.15-21.1 68.45-23.28 71.75-25.45 75.4-25.45L75.4-25.45ZM72.8-22.3Q70.59-22.3 68.87-20.9 67.15-19.5 66.17-17.3 65.2-15.1 65.2-12.75L65.2-12.75Q65.2-9.65 66.65-7.45L66.65-7.45Q68.75-8.4 71.2-10.33 73.65-12.25 75.34-14.5 77.05-16.75 77.05-18.6L77.05-18.6Q77.05-22.3 72.8-22.3L72.8-22.3ZM119.54-46.2L119.54-4.45Q119.54-3.75 119.87-3.18 120.19-2.6 120.89-2.6L120.89-2.6Q121.59-2.6 122.29-3.23 122.99-3.85 123.34-4.6L123.34-4.6 124.29-3.8Q123.49-2.1 122.02-0.93 120.54 0.25 119.14 0.25L119.14 0.25Q116.84 0.25 115.79-1.05 114.74-2.35 114.79-5.55L114.79-5.55 114.59-5.55Q111.54 0.6 107.14 0.6L107.14 0.6Q102.79 0.6 100.47-2.43 98.14-5.45 98.14-10L98.14-10Q98.14-13.6 99.69-17.15 101.24-20.7 104.12-23 106.99-25.3 110.74-25.3L110.74-25.3Q113.09-25.3 114.84-24.1L114.84-24.1 114.84-44.3 119.54-46.2ZM110.44-22.35Q107.64-22.35 105.82-20.6 103.99-18.85 103.14-16.38 102.29-13.9 102.29-11.75L102.29-11.75Q102.29-10.05 102.89-8 103.49-5.95 104.84-4.48 106.19-3 108.29-3L108.29-3Q112.09-3 113.47-6.28 114.84-9.55 114.84-13.5L114.84-13.5 114.84-20.35Q113.99-21.25 112.87-21.8 111.74-22.35 110.44-22.35L110.44-22.35ZM138.79-18.9Q136.54-16.55 134.91-12.78 133.29-9 133.29-5.9L133.29-5.9Q133.29-3.2 134.46-1.38 135.64 0.45 138.24 0.45L138.24 0.45Q140.34 0.45 142.26-0.65 144.19-1.75 145.54-3.5L145.54-3.5 144.99-4.25Q143.44-3.2 141.94-3.2L141.94-3.2Q139.59-3.2 138.39-4.85 137.19-6.5 137.19-8.85L137.19-8.85Q137.19-12.65 139.14-16.05 141.09-19.45 144.09-22.65L144.09-22.65 143.29-23.35Q139.79-21.15 136.89-21.15L136.89-21.15Q135.19-21.15 133.79-22.68 132.39-24.2 131.64-26.05L131.64-26.05 127.59-21.5Q127.94-20.5 129.49-19.2L129.49-19.2 126.14-12.2 127.99-11.35 131.24-18.5Q132.09-18.15 132.64-18.05 133.19-17.95 134.14-17.95L134.14-17.95Q136.59-17.95 138.64-19.05L138.64-19.05 138.79-18.9ZM160.89-25.45L161.79-24.4Q158.04-22 155.89-19.05 153.74-16.1 153.74-12.1L153.74-12.1Q153.74-9.85 154.69-7.58 155.64-5.3 157.54-3.8 159.44-2.3 162.09-2.3L162.09-2.3Q164.24-2.3 165.91-3.3 167.59-4.3 168.51-6 169.44-7.7 169.44-9.75L169.44-9.75Q169.44-12.1 168.01-14.55 166.59-17 164.29-18.7 161.99-20.4 159.59-20.6L159.59-20.6Q160.59-21.6 161.99-22.7 163.39-23.8 164.84-24.85L164.84-24.85Q168.29-23.7 170.29-20.48 172.29-17.25 172.29-13.3L172.29-13.3Q172.29-9.8 170.86-6.58 169.44-3.35 166.69-1.33 163.94 0.7 160.19 0.7L160.19 0.7Q157.19 0.7 154.66-0.78 152.14-2.25 150.69-4.8 149.24-7.35 149.24-10.45L149.24-10.45Q149.24-15.9 152.46-19.9 155.69-23.9 160.89-25.45L160.89-25.45ZM191.58-25.25Q194.23-25.25 196.48-23.73 198.73-22.2 200.03-19.58 201.33-16.95 201.33-13.85L201.33-13.85Q201.33-9.45 200.11-6.23 198.88-3 196.58-1.25 194.28 0.5 191.18 0.5L191.18 0.5Q190.43 0.5 189.71 0.28 188.98 0.05 187.88-0.5L187.88-0.5 189.18-3.35Q190.43-2.55 192.78-2.55L192.78-2.55Q194.88-2.55 196.21-5.33 197.53-8.1 197.53-12.45L197.53-12.45Q197.53-14.95 196.53-17.03 195.53-19.1 193.78-20.28 192.03-21.45 189.88-21.45L189.88-21.45Q187.28-21.45 185.88-18.65 184.48-15.85 184.48-10.7L184.48-10.7 184.48 14.45 180.13 16.3 180.13-20.55Q180.13-21.45 179.73-22 179.33-22.55 178.68-22.55L178.68-22.55Q178.18-22.55 177.58-22.05 176.98-21.55 176.08-20.45L176.08-20.45 175.33-21.2Q175.93-22.9 177.43-24.08 178.93-25.25 180.43-25.25L180.43-25.25Q182.68-25.25 183.68-23.93 184.68-22.6 184.68-19.65L184.68-19.65 184.88-19.65Q186.03-22.15 187.86-23.7 189.68-25.25 191.58-25.25L191.58-25.25Z" opacity="1" transform="matrix(1,0,0,1,0,0)" fill="#dfeef4" class="wordmark-text-0" data-fill-palette-color="primary" id="text-0"></path></svg></g></svg></g></svg></g></svg></g><g transform="matrix(1,0,0,1,424.85299180698667,0)"><svg viewBox="0 0 190.610410851136 171.71671274189495" height="171.71671274189495" width="190.610410851136"><g><svg xmlns="http://www.w3.org/2000/svg" xmlns:xlink="http://www.w3.org/1999/xlink" version="1.1" x="0" y="0" viewBox="4.894 9.365 90.21199999999999 81.27000000000001" enable-background="new 0 0 100 100" xml:space="preserve" height="171.71671274189495" width="190.610410851136" class="icon-icon-0" data-fill-palette-color="accent" id="icon-0"><g fill="#c8c8c8" data-fill-palette-color="accent"><polygon fill-rule="evenodd" clip-rule="evenodd" points="14.399,86.246 44.118,86.246 44.118,76.158 20.224,76.158  " fill="#c8c8c8" data-fill-palette-color="accent"></polygon><polygon fill-rule="evenodd" clip-rule="evenodd" points="31.323,59.811 28.837,53.813 26.351,47.815 20.327,50.24 14.304,52.666    17.798,54.133 4.894,76.484 10.836,86.367 27.174,58.068  " fill="#c8c8c8" data-fill-palette-color="accent"></polygon><polygon fill-rule="evenodd" clip-rule="evenodd" points="83.458,73.307 95.106,73.307 80.25,47.576 71.514,52.619  " fill="#c8c8c8" data-fill-palette-color="accent"></polygon><polygon fill-rule="evenodd" clip-rule="evenodd" points="27.486,38.454 36.223,43.499 48.171,22.804 42.347,12.716  " fill="#c8c8c8" data-fill-palette-color="accent"></polygon><polygon fill-rule="evenodd" clip-rule="evenodd" points="56.576,38.862 62.757,40.85 68.938,42.838 70.99,36.678 73.041,30.517    68.961,32.585 55.554,9.365 44.024,9.57 59.949,37.153  " fill="#c8c8c8" data-fill-palette-color="accent"></polygon><polygon fill-rule="evenodd" clip-rule="evenodd" points="62.674,72.418 58.106,76.973 53.539,81.527 58.106,86.08 62.674,90.635    62.674,86.428 89.198,86.428 94.785,76.34 62.674,76.34  " fill="#c8c8c8" data-fill-palette-color="accent"></polygon></g></svg></g></svg></g></svg></g><defs></defs></svg><rect width="395.52" height="110.3516373684383" fill="none" stroke="none" visibility="hidden"></rect></g></svg></g></svg>